<svg width="56" height="56" viewBox="0 0 56 56" fill="none" xmlns="http://www.w3.org/2000/svg">
<path d="M9.33268 46.6668C8.04935 46.6668 6.95113 46.2103 6.03802 45.2972C5.1249 44.3841 4.66757 43.285 4.66602 42.0002V14.0002C4.66602 12.7168 5.12335 11.6186 6.03802 10.7055C6.95268 9.79238 8.0509 9.33505 9.33268 9.3335H46.666C47.9493 9.3335 49.0483 9.79083 49.963 10.7055C50.8777 11.6202 51.3342 12.7184 51.3327 14.0002V42.0002C51.3327 43.2835 50.8761 44.3825 49.963 45.2972C49.0499 46.2118 47.9509 46.6684 46.666 46.6668H9.33268ZM9.33268 42.0002H46.666V18.6668H9.33268V42.0002ZM25.5493 38.6168L17.266 30.3335L20.6493 26.9502L25.5493 31.8502L35.3493 22.0502L38.7327 25.4335L25.5493 38.6168Z" fill="black"/>
</svg>
