<svg width="61" height="60" viewBox="0 0 61 60" fill="none" xmlns="http://www.w3.org/2000/svg">
<path d="M16.5 16.7368C24.232 16.7368 30.5 13.4379 30.5 9.36842C30.5 5.29895 24.232 2 16.5 2C8.76801 2 2.5 5.29895 2.5 9.36842C2.5 13.4379 8.76801 16.7368 16.5 16.7368Z" stroke="black" stroke-width="4" stroke-linecap="round" stroke-linejoin="round"/>
<path d="M2.5 9.36865V19.6844C2.5 23.7533 8.7678 27.0529 16.5 27.0529C24.2322 27.0529 30.5 23.7533 30.5 19.6844V9.36865" stroke="black" stroke-width="4" stroke-linecap="round" stroke-linejoin="round"/>
<path d="M2.5 19.6841V29.9999C2.5 34.0687 8.7678 37.3683 16.5 37.3683C24.2322 37.3683 30.5 34.0687 30.5 29.9999V19.6841" stroke="black" stroke-width="4" stroke-linecap="round" stroke-linejoin="round"/>
<path d="M2.5 30V40.3158C2.5 44.3846 8.7678 47.6842 16.5 47.6842C24.2322 47.6842 30.5 44.3846 30.5 40.3158V30" stroke="black" stroke-width="4" stroke-linecap="round" stroke-linejoin="round"/>
<path d="M2.5 40.3159V50.6317C2.5 54.7005 8.7678 58.0001 16.5 58.0001C24.2322 58.0001 30.5 54.7005 30.5 50.6317V40.3159" stroke="black" stroke-width="4" stroke-linecap="round" stroke-linejoin="round"/>
<path d="M44.5 37.3682C52.232 37.3682 58.5 34.0692 58.5 29.9998C58.5 25.9303 52.232 22.6313 44.5 22.6313C36.768 22.6313 30.5 25.9303 30.5 29.9998C30.5 34.0692 36.768 37.3682 44.5 37.3682Z" stroke="black" stroke-width="4" stroke-linecap="round" stroke-linejoin="round"/>
<path d="M30.5 30V40.3158C30.5 44.3846 36.7678 47.6842 44.5 47.6842C52.2322 47.6842 58.5 44.3846 58.5 40.3158V30" stroke="black" stroke-width="4" stroke-linecap="round" stroke-linejoin="round"/>
<path d="M30.5 40.3159V50.6317C30.5 54.7005 36.7678 58.0001 44.5 58.0001C52.2322 58.0001 58.5 54.7005 58.5 50.6317V40.3159" stroke="black" stroke-width="4" stroke-linecap="round" stroke-linejoin="round"/>
</svg>
