<svg width="32" height="22" viewBox="0 0 32 22" fill="none" xmlns="http://www.w3.org/2000/svg">
<path d="M32 20.4364C32 21.3007 31.2864 22 30.408 22H17.592C17.1698 22 16.7648 21.8353 16.4663 21.542C16.1677 21.2488 16 20.8511 16 20.4364C16 20.0217 16.1677 19.624 16.4663 19.3308C16.7648 19.0376 17.1698 18.8729 17.592 18.8729H30.408C31.288 18.8729 32 19.5721 32 20.4364ZM32 11C32 11.8643 31.2864 12.5636 30.408 12.5636H1.592C1.16978 12.5636 0.764844 12.3988 0.466286 12.1056C0.167728 11.8124 0 11.4147 0 11C0 10.5853 0.167728 10.1876 0.466286 9.89439C0.764844 9.60116 1.16978 9.43643 1.592 9.43643H30.408C31.288 9.43643 32 10.1373 32 11ZM30.408 3.12714C30.8302 3.12714 31.2352 2.96241 31.5337 2.66918C31.8323 2.37596 32 1.97826 32 1.56357C32 1.14889 31.8323 0.751186 31.5337 0.457959C31.2352 0.164733 30.8302 1.23586e-08 30.408 0H11.192C10.9829 -6.11934e-09 10.7759 0.040443 10.5828 0.11902C10.3896 0.197597 10.2141 0.312768 10.0663 0.457959C9.91846 0.60315 9.80119 0.775518 9.72118 0.965219C9.64118 1.15492 9.6 1.35824 9.6 1.56357C9.6 1.7689 9.64118 1.97222 9.72118 2.16192C9.80119 2.35163 9.91846 2.52399 10.0663 2.66918C10.2141 2.81437 10.3896 2.92955 10.5828 3.00812C10.7759 3.0867 10.9829 3.12714 11.192 3.12714H30.408Z" fill="black"/>
</svg>
