<svg width="404" height="297" viewBox="0 0 404 297" fill="none" xmlns="http://www.w3.org/2000/svg">
<g clip-path="url(#clip0_184_799)">
<path d="M381.856 297L382.316 296.148C376.147 292.807 368.469 288.649 364.459 281.825C360.506 275.098 360.418 265.963 364.228 257.986C367.471 251.196 373.427 245.114 381.453 240.395C383.037 239.464 384.698 238.582 386.306 237.729C390.191 235.667 394.208 233.535 397.52 230.51C402.082 226.343 405.534 219.351 402.961 213.123C402.115 211.135 400.73 209.425 398.962 208.186C397.194 206.947 395.114 206.23 392.96 206.115L392.905 207.082C394.879 207.187 396.784 207.844 398.404 208.978C400.024 210.113 401.294 211.679 402.07 213.5C404.461 219.287 401.181 225.855 396.868 229.794C393.646 232.736 389.684 234.839 385.853 236.873C384.236 237.731 382.565 238.618 380.964 239.559C372.77 244.376 366.681 250.603 363.355 257.568C359.408 265.832 359.512 275.315 363.626 282.316C367.772 289.372 375.581 293.602 381.856 297Z" fill="#F1F1F1"/>
<path d="M386.828 211.221C391.503 211.221 395.293 209.378 395.293 207.103C395.293 204.829 391.503 202.986 386.828 202.986C382.153 202.986 378.363 204.829 378.363 207.103C378.363 209.378 382.153 211.221 386.828 211.221Z" fill="#F1F1F1"/>
<path d="M380.057 238.349C384.732 238.349 388.522 236.505 388.522 234.231C388.522 231.957 384.732 230.114 380.057 230.114C375.382 230.114 371.592 231.957 371.592 234.231C371.592 236.505 375.382 238.349 380.057 238.349Z" fill="#F1F1F1"/>
<path d="M395.535 242.709C400.21 242.709 404 240.865 404 238.591C404 236.317 400.21 234.474 395.535 234.474C390.86 234.474 387.07 236.317 387.07 238.591C387.07 240.865 390.86 242.709 395.535 242.709Z" fill="#F1F1F1"/>
<path d="M371.35 265.477C376.025 265.477 379.815 263.633 379.815 261.359C379.815 259.085 376.025 257.241 371.35 257.241C366.675 257.241 362.885 259.085 362.885 261.359C362.885 263.633 366.675 265.477 371.35 265.477Z" fill="#F1F1F1"/>
<path d="M354.42 265.477C359.095 265.477 362.885 263.633 362.885 261.359C362.885 259.085 359.095 257.241 354.42 257.241C349.745 257.241 345.955 259.085 345.955 261.359C345.955 263.633 349.745 265.477 354.42 265.477Z" fill="#F1F1F1"/>
<path d="M66.4064 212.897H36.3706C35.5573 212.896 34.7775 212.572 34.2024 211.996C33.6272 211.42 33.3037 210.639 33.3027 209.825V110.712C33.3037 109.898 33.6272 109.117 34.2024 108.541C34.7775 107.965 35.5573 107.641 36.3706 107.64H66.4064C67.2197 107.641 67.9995 107.965 68.5746 108.541C69.1497 109.117 69.4733 109.898 69.4742 110.712V209.825C69.4733 210.639 69.1497 211.42 68.5746 211.996C67.9995 212.572 67.2197 212.896 66.4064 212.897Z" fill="white"/>
<path d="M121.181 212.897H91.145C90.3317 212.896 89.5519 212.572 88.9768 211.996C88.4017 211.42 88.0781 210.639 88.0771 209.825V71.3822C88.0781 70.5677 88.4017 69.7868 88.9768 69.2109C89.5519 68.6349 90.3317 68.311 91.145 68.3101H121.181C121.994 68.311 122.774 68.6349 123.349 69.2109C123.924 69.7868 124.248 70.5677 124.249 71.3822V209.825C124.248 210.639 123.924 211.42 123.349 211.996C122.774 212.572 121.994 212.896 121.181 212.897Z" fill="white"/>
<path d="M175.954 212.897H145.918C145.105 212.896 144.325 212.572 143.75 211.996C143.175 211.42 142.852 210.639 142.851 209.825V110.712C142.852 109.898 143.175 109.117 143.75 108.541C144.325 107.965 145.105 107.641 145.918 107.64H175.954C176.768 107.641 177.547 107.965 178.122 108.541C178.698 109.117 179.021 109.898 179.022 110.712V209.825C179.021 210.639 178.698 211.42 178.122 211.996C177.547 212.572 176.768 212.896 175.954 212.897Z" fill="white"/>
<path d="M230.729 212.897H200.693C199.898 212.914 199.129 212.615 198.554 212.065C197.979 211.515 197.645 210.76 197.625 209.964V55.7181C197.645 54.9222 197.979 54.1666 198.554 53.6168C199.129 53.0671 199.898 52.768 200.693 52.7851H230.729C231.523 52.768 232.293 53.0671 232.868 53.6168C233.443 54.1666 233.777 54.9222 233.796 55.7181V209.964C233.777 210.76 233.443 211.515 232.868 212.065C232.293 212.615 231.523 212.914 230.729 212.897Z" fill="white"/>
<path d="M285.502 212.897H255.466C254.653 212.896 253.873 212.572 253.298 211.996C252.723 211.42 252.399 210.639 252.398 209.825V27.9122C252.399 27.0977 252.723 26.3168 253.298 25.7409C253.873 25.165 254.653 24.841 255.466 24.8401H285.502C286.315 24.841 287.095 25.165 287.67 25.7409C288.245 26.3168 288.569 27.0977 288.57 27.9122V209.825C288.569 210.639 288.245 211.42 287.67 211.996C287.095 212.572 286.315 212.896 285.502 212.897Z" fill="white"/>
<path d="M51.3883 95.2201C54.813 95.2201 57.5892 92.4398 57.5892 89.0101C57.5892 85.5804 54.813 82.8 51.3883 82.8C47.9637 82.8 45.1875 85.5804 45.1875 89.0101C45.1875 92.4398 47.9637 95.2201 51.3883 95.2201Z" fill="#3F3D56"/>
<path d="M106.163 54.8551C109.587 54.8551 112.364 52.0748 112.364 48.6451C112.364 45.2154 109.587 42.4351 106.163 42.4351C102.738 42.4351 99.9619 45.2154 99.9619 48.6451C99.9619 52.0748 102.738 54.8551 106.163 54.8551Z" fill="#3F3D56"/>
<path d="M160.936 95.2201C164.361 95.2201 167.137 92.4398 167.137 89.0101C167.137 85.5804 164.361 82.8 160.936 82.8C157.512 82.8 154.735 85.5804 154.735 89.0101C154.735 92.4398 157.512 95.2201 160.936 95.2201Z" fill="#3F3D56"/>
<path d="M215.711 35.19C219.135 35.19 221.911 32.4097 221.911 28.98C221.911 25.5503 219.135 22.77 215.711 22.77C212.286 22.77 209.51 25.5503 209.51 28.98C209.51 32.4097 212.286 35.19 215.711 35.19Z" fill="#3F3D56"/>
<path d="M270.485 12.42C273.91 12.42 276.686 9.63971 276.686 6.21001C276.686 2.78032 273.91 0 270.485 0C267.06 0 264.284 2.78032 264.284 6.21001C264.284 9.63971 267.06 12.42 270.485 12.42Z" fill="#3F3D56"/>
<path d="M320.699 214.05H0.483709C0.355421 214.05 0.232388 213.999 0.141675 213.908C0.0509617 213.817 0 213.694 0 213.566C0 213.437 0.0509617 213.314 0.141675 213.223C0.232388 213.132 0.355421 213.081 0.483709 213.081H320.699C320.827 213.081 320.95 213.132 321.041 213.223C321.132 213.314 321.183 213.437 321.183 213.566C321.183 213.694 321.132 213.817 321.041 213.908C320.95 213.999 320.827 214.05 320.699 214.05Z" fill="#CBCBCB"/>
<path d="M400.511 296.887H243.789C243.661 296.887 243.538 296.836 243.447 296.745C243.357 296.654 243.306 296.531 243.306 296.402C243.306 296.274 243.357 296.151 243.447 296.06C243.538 295.969 243.661 295.918 243.789 295.918H400.511C400.639 295.918 400.762 295.969 400.853 296.06C400.944 296.151 400.995 296.274 400.995 296.402C400.995 296.531 400.944 296.654 400.853 296.745C400.762 296.836 400.639 296.887 400.511 296.887Z" fill="#CBCBCB"/>
<path d="M299.868 206.176C300.266 205.781 300.572 205.302 300.765 204.775C300.958 204.248 301.034 203.684 300.986 203.125C300.938 202.565 300.769 202.023 300.489 201.536C300.21 201.049 299.827 200.63 299.368 200.307L301.27 191.738L296.352 189.311L293.836 201.45C293.346 202.258 293.169 203.218 293.338 204.148C293.508 205.078 294.012 205.914 294.756 206.497C295.499 207.079 296.43 207.368 297.373 207.309C298.315 207.25 299.203 206.847 299.868 206.176Z" fill="#FFB7B7"/>
<path d="M353.648 206.364C354.014 205.939 354.283 205.438 354.434 204.897C354.586 204.357 354.618 203.789 354.527 203.235C354.436 202.681 354.225 202.153 353.909 201.69C353.593 201.226 353.179 200.838 352.696 200.551L353.93 191.86L348.839 189.821L347.269 202.119C346.843 202.963 346.74 203.934 346.981 204.848C347.222 205.762 347.789 206.556 348.576 207.079C349.362 207.603 350.313 207.819 351.248 207.687C352.183 207.555 353.037 207.085 353.648 206.364Z" fill="#FFB7B7"/>
<path d="M315.312 291.662L310.297 291.661L307.911 272.289L315.313 272.29L315.312 291.662Z" fill="#FFB7B7"/>
<path d="M316.591 296.53L300.42 296.529V296.324C300.42 294.653 301.083 293.05 302.264 291.868C303.444 290.685 305.045 290.021 306.714 290.021L316.591 290.022L316.591 296.53Z" fill="#2F2E41"/>
<path d="M332.083 291.662L327.068 291.661L324.683 272.289L332.084 272.29L332.083 291.662Z" fill="#FFB7B7"/>
<path d="M333.362 296.53L317.191 296.529V296.324C317.192 294.653 317.855 293.05 319.035 291.868C320.215 290.685 321.816 290.021 323.485 290.021L333.362 290.022L333.362 296.53Z" fill="#2F2E41"/>
<path d="M342.18 128.678L347.588 126.724C347.588 126.724 349.883 127.212 349.883 133.446C349.883 139.679 355.979 197.817 355.979 197.817L345.311 200.63L339.281 145.472L342.18 128.678Z" fill="#2F2E41"/>
<path d="M306.045 128.678L300.637 126.724C300.637 126.724 298.342 127.212 298.342 133.446C298.342 139.679 292.246 197.817 292.246 197.817L302.914 200.63L308.944 145.472L306.045 128.678Z" fill="#2F2E41"/>
<path d="M306.114 194.984L304.636 238.656L307.908 286.965L316.34 287.16L317.568 242.096L324.522 219.565L323.82 285.975L333.368 285.861L339.282 240.171C339.282 240.171 347.091 202.358 342.76 194.984L322.816 188.342L306.114 194.984Z" fill="#2F2E41"/>
<path d="M306.276 189.722L305.795 200.228C305.795 200.228 312.524 203.581 324.352 201.539C336.18 199.496 344.042 200.842 344.042 200.842L343.134 187.45L306.276 189.722Z" fill="#E5E5E5"/>
<path d="M300.422 126.879L315.975 120.053L316.903 116.479L332.033 116.917L332.687 120.569L347.588 126.724L341.023 149.587L341.696 165.671L349.884 194.984C349.884 194.984 342.978 200.858 326.387 198.331L323.524 192.554L321.773 198.663C321.773 198.663 307.224 204.023 303.192 197.046L306.114 146.644L300.422 126.879Z" fill="#2F2E41"/>
<path d="M324.33 113.12C329.879 113.12 334.377 108.615 334.377 103.058C334.377 97.5012 329.879 92.9963 324.33 92.9963C318.781 92.9963 314.283 97.5012 314.283 103.058C314.283 108.615 318.781 113.12 324.33 113.12Z" fill="#FFB7B7"/>
<path d="M336.268 99.1594C336.088 98.3405 335.743 97.5673 335.253 96.8875C335.057 95.0077 334.431 93.1985 333.423 91.6008C333.028 90.8522 332.467 90.204 331.784 89.7059C331.001 89.2544 330.107 89.0313 329.204 89.062C329.041 89.0592 328.746 89.109 328.481 89.1211C328.311 89.0685 328.14 89.0215 327.969 88.9774C327.868 88.7542 327.67 88.1037 327.614 88.1477L326.866 88.7433C326.55 88.6882 326.231 88.6453 325.912 88.6113C325.796 88.2793 325.68 87.9473 325.564 87.6152C325.375 87.9122 325.21 88.2234 325.069 88.5459C324.751 88.5303 324.433 88.5249 324.115 88.5295L323.479 87.9176C323.442 88.0882 323.355 88.2442 323.231 88.3665C323.106 88.4888 322.949 88.572 322.777 88.6059C322.485 88.636 322.193 88.6753 321.903 88.7221C321.879 88.722 321.855 88.7221 321.832 88.7215C320.265 88.6824 318.58 88.612 317.27 89.4733C316.657 89.8948 316.158 90.462 315.818 91.124C315.657 91.2332 315.496 91.3415 315.341 91.4573C314.815 91.8162 314.36 92.2683 313.997 92.7914C313.733 93.2425 313.533 93.728 313.402 94.2342C312.902 95.7575 312.671 97.3563 312.718 98.9591C312.771 100.573 313.379 102.119 314.439 103.335C315.111 104.058 315.965 104.592 316.638 105.314C318.023 106.801 318.283 108.875 319.467 110.448C320.721 112.112 323.008 113.207 325.017 113.52C326.224 113.703 327.456 113.644 328.641 113.348C329.826 113.052 330.941 112.525 331.922 111.796C332.392 111.467 332.792 111.048 333.097 110.561C333.795 109.353 333.499 107.836 333.758 106.465C334.243 103.896 336.692 101.739 336.268 99.1594Z" fill="#2F2E41"/>
<path d="M51.058 89.3988L50.4805 88.6217L106.163 47.1051L160.76 87.8888L216.104 27.7116L216.203 27.6709L269.914 5.47021L270.283 6.36592L216.671 28.5254L160.88 89.1876L106.163 48.3132L51.058 89.3988Z" fill="#3F3D56"/>
</g>
<defs>
<clipPath id="clip0_184_799">
<rect width="404" height="297" fill="white"/>
</clipPath>
</defs>
</svg>
