<svg width="53" height="50" viewBox="0 0 53 50" fill="none" xmlns="http://www.w3.org/2000/svg">
<path d="M52.75 11V12.75C52.75 12.9821 52.6578 13.2047 52.4937 13.3687C52.3296 13.5328 52.1071 13.625 51.875 13.625H49.25V14.9375C49.25 15.6624 48.6623 16.25 47.9375 16.25H5.0625C4.33767 16.25 3.75 15.6624 3.75 14.9375V13.625H1.125C0.892936 13.625 0.670376 13.5328 0.506282 13.3687C0.342187 13.2047 0.25 12.9821 0.25 12.75V11C0.250001 10.8269 0.301349 10.6577 0.397547 10.5138C0.493745 10.3699 0.630469 10.2577 0.790422 10.1915L26.1654 0.56653C26.3797 0.477823 26.6203 0.477823 26.8346 0.56653L52.2096 10.1915C52.3695 10.2577 52.5063 10.3699 52.6025 10.5138C52.6987 10.6577 52.75 10.8269 52.75 11ZM50.125 44.25H2.875C1.42523 44.25 0.25 45.4253 0.25 46.875V48.625C0.25 48.8571 0.342187 49.0797 0.506282 49.2438C0.670376 49.4078 0.892936 49.5 1.125 49.5H51.875C52.1071 49.5 52.3296 49.4078 52.4937 49.2438C52.6578 49.0797 52.75 48.8571 52.75 48.625V46.875C52.75 45.4253 51.5748 44.25 50.125 44.25ZM9 18V39H5.0625C4.33767 39 3.75 39.5877 3.75 40.3125V42.5H49.25V40.3125C49.25 39.5877 48.6623 39 47.9375 39H44V18H37V39H30V18H23V39H16V18H9Z" fill="black"/>
</svg>
