<svg width="56" height="56" viewBox="0 0 56 56" fill="none" xmlns="http://www.w3.org/2000/svg">
<path d="M7.6356 9.3325C5.5272 9.3325 3.8192 11.0041 3.8192 13.0677V42.9325C3.8192 44.9961 5.5272 46.6677 7.6356 46.6677H48.3644C50.4728 46.6677 52.1808 44.9961 52.1808 42.9325V13.0677C52.1808 11.0041 50.4728 9.3325 48.3644 9.3325H7.6356ZM48.3644 5.6001C52.5812 5.6001 56 8.9433 56 13.0677V42.9325C56 47.0569 52.5812 50.4001 48.3644 50.4001H7.6356C3.4188 50.4001 0 47.0569 0 42.9325V13.0677C0 8.9433 3.4188 5.6001 7.6356 5.6001H48.3644ZM22.8676 36.7725H11.2C10.9519 36.7695 10.7057 36.8155 10.4754 36.9078C10.2452 37.0001 10.0353 37.1369 9.85797 37.3104C9.6806 37.4838 9.53918 37.6905 9.44179 37.9187C9.3444 38.1469 9.29296 38.392 9.2904 38.6401C9.2904 39.6705 10.1444 40.5077 11.2 40.5077H22.8676C23.1154 40.5103 23.3614 40.464 23.5913 40.3716C23.8213 40.2791 24.0308 40.1423 24.2078 39.9688C24.3849 39.7954 24.5261 39.5888 24.6233 39.3608C24.7205 39.1328 24.7718 38.8879 24.7744 38.6401C24.7718 38.3923 24.7205 38.1474 24.6233 37.9194C24.5261 37.6914 24.3849 37.4848 24.2078 37.3114C24.0308 37.1379 23.8213 37.0011 23.5913 36.9086C23.3614 36.8162 23.1154 36.7699 22.8676 36.7725ZM38.5 14.9325C34.2328 14.9325 30.758 18.2673 30.758 22.4001C30.758 24.5645 31.71 26.5105 33.2332 27.8741C30.3492 29.5765 28.4256 32.6425 28.4256 36.1453C28.4256 37.1449 28.5824 38.1277 28.8876 39.0657C29.2096 40.0457 30.2848 40.5889 31.2872 40.2753C31.5238 40.2044 31.7439 40.0871 31.9346 39.9303C32.1253 39.7734 32.2829 39.5801 32.3981 39.3617C32.5133 39.1432 32.5839 38.904 32.6056 38.658C32.6274 38.412 32.5999 38.1642 32.5248 37.9289C32.3376 37.3529 32.2431 36.7509 32.2448 36.1453C32.2448 32.8553 35.0364 30.1729 38.5 30.1729C41.9636 30.1729 44.758 32.8553 44.758 36.1453C44.758 36.6297 44.6992 37.1029 44.5816 37.5621C44.5226 37.8021 44.5118 38.0514 44.55 38.2956C44.5882 38.5398 44.6746 38.7739 44.8041 38.9844C44.9336 39.195 45.1036 39.3776 45.3043 39.5218C45.505 39.6661 45.7324 39.7689 45.9732 39.8245C46.4602 39.9467 46.9756 39.8724 47.4083 39.6178C47.841 39.3632 48.1563 38.9487 48.286 38.4637C48.4792 37.7077 48.5744 36.9321 48.5744 36.1453C48.5744 32.6425 46.6508 29.5765 43.7668 27.8685C45.29 26.5105 46.242 24.5645 46.242 22.4001C46.242 18.2673 42.77 14.9325 38.5 14.9325ZM22.8676 26.9725H11.2C10.9519 26.9695 10.7057 27.0155 10.4754 27.1078C10.2452 27.2001 10.0353 27.3369 9.85797 27.5104C9.6806 27.6838 9.53918 27.8905 9.44179 28.1187C9.3444 28.3469 9.29296 28.592 9.2904 28.8401C9.2904 29.8705 10.1444 30.7077 11.2 30.7077H22.8676C23.1154 30.7103 23.3614 30.664 23.5913 30.5716C23.8213 30.4791 24.0308 30.3423 24.2078 30.1688C24.3849 29.9954 24.5261 29.7888 24.6233 29.5608C24.7205 29.3328 24.7718 29.0879 24.7744 28.8401C24.7718 28.5923 24.7205 28.3474 24.6233 28.1194C24.5261 27.8914 24.3849 27.6848 24.2078 27.5114C24.0308 27.3379 23.8213 27.2011 23.5913 27.1086C23.3614 27.0162 23.1154 26.9699 22.8676 26.9725ZM38.5 18.6677C40.6756 18.6677 42.4256 20.3477 42.4256 22.4001C42.4256 24.4553 40.6756 26.1325 38.5 26.1325C36.3244 26.1325 34.5744 24.4525 34.5744 22.4001C34.5744 20.3449 36.3244 18.6677 38.5 18.6677ZM22.8676 17.1725H11.2C10.9519 17.1695 10.7057 17.2155 10.4754 17.3078C10.2452 17.4001 10.0353 17.5369 9.85797 17.7104C9.6806 17.8838 9.53918 18.0905 9.44179 18.3187C9.3444 18.5469 9.29296 18.792 9.2904 19.0401C9.2904 20.0705 10.1444 20.9077 11.2 20.9077H22.8676C23.1154 20.9103 23.3614 20.864 23.5913 20.7716C23.8213 20.6791 24.0308 20.5423 24.2078 20.3688C24.3849 20.1954 24.5261 19.9888 24.6233 19.7608C24.7205 19.5328 24.7718 19.2879 24.7744 19.0401C24.7718 18.7923 24.7205 18.5474 24.6233 18.3194C24.5261 18.0914 24.3849 17.8848 24.2078 17.7114C24.0308 17.5379 23.8213 17.4011 23.5913 17.3086C23.3614 17.2162 23.1154 17.1699 22.8676 17.1725Z" fill="black"/>
</svg>
