<svg width="16" height="16" viewBox="0 0 16 16" fill="none" xmlns="http://www.w3.org/2000/svg">
<path d="M7.99952 1.74929C10.0376 1.74929 10.2799 1.75691 11.0852 1.79424C13.1538 1.88796 14.1199 2.87005 14.2144 4.92339C14.2517 5.72796 14.2586 5.97024 14.2586 8.0091C14.2586 10.0472 14.2509 10.2887 14.2144 11.0933C14.1199 13.1451 13.1553 14.1287 11.0852 14.2224C10.2799 14.2598 10.0391 14.2674 7.99952 14.2674C5.96143 14.2674 5.71914 14.2598 4.91457 14.2224C2.84066 14.128 1.87914 13.1421 1.78542 11.0925C1.74809 10.288 1.74047 10.0464 1.74047 8.00758C1.74047 5.96948 1.74885 5.72796 1.78542 4.92262C1.8799 2.87005 2.84447 1.88796 4.91457 1.79348C5.7199 1.75691 5.96143 1.74929 7.99952 1.74929ZM7.99952 0.373291C5.92638 0.373291 5.66657 0.382434 4.85285 0.419005C2.07952 0.546243 0.538187 2.08453 0.410949 4.86091C0.375139 5.67539 0.365234 5.93443 0.365234 8.00758C0.365234 10.0815 0.374377 10.3413 0.410949 11.1558C0.538187 13.9283 2.07647 15.4689 4.85133 15.5961C5.66657 15.6335 5.92562 15.6419 7.99952 15.6419C10.0727 15.6419 10.3332 15.6327 11.1477 15.5961C13.9172 15.4689 15.4616 13.9306 15.5873 11.1558C15.6254 10.3413 15.6338 10.0815 15.6338 8.00758C15.6338 5.93443 15.6247 5.67462 15.5881 4.86091C15.4631 2.08986 13.9233 0.546243 11.1477 0.419005C10.3325 0.38091 10.0734 0.373291 7.99952 0.373291ZM7.99952 4.08758C6.95987 4.08758 5.9628 4.50058 5.22766 5.23572C4.49252 5.97086 4.07952 6.96793 4.07952 8.00758C4.07952 9.04723 4.49252 10.0443 5.22766 10.7794C5.9628 11.5146 6.95987 11.9276 7.99952 11.9276C9.03917 11.9276 10.0362 11.5146 10.7714 10.7794C11.5065 10.0443 11.9195 9.04723 11.9195 8.00758C11.9195 6.96793 11.5065 5.97086 10.7714 5.23572C10.0362 4.50058 9.03917 4.08758 7.99952 4.08758ZM7.99952 10.5523C7.66168 10.5582 7.32606 10.4967 7.01224 10.3715C6.69842 10.2462 6.41269 10.0597 6.17171 9.82288C5.93073 9.58603 5.73932 9.30356 5.60867 8.99196C5.47802 8.68035 5.41073 8.34585 5.41073 8.00796C5.41073 7.67007 5.47802 7.33556 5.60867 7.02396C5.73932 6.71235 5.93073 6.42989 6.17171 6.19304C6.41269 5.95619 6.69842 5.76971 7.01224 5.64446C7.32606 5.51922 7.66168 5.45773 7.99952 5.46358C8.67443 5.46358 9.3217 5.73169 9.79894 6.20892C10.2762 6.68616 10.5443 7.33343 10.5443 8.00834C10.5443 8.68325 10.2762 9.33052 9.79894 9.80776C9.3217 10.285 8.67443 10.5523 7.99952 10.5523ZM12.0749 3.0171C11.9524 3.01357 11.8304 3.03465 11.7162 3.0791C11.6019 3.12356 11.4977 3.19048 11.4098 3.2759C11.3219 3.36133 11.252 3.46352 11.2043 3.57644C11.1565 3.68936 11.132 3.8107 11.132 3.93329C11.132 4.05588 11.1565 4.17723 11.2043 4.29014C11.252 4.40306 11.3219 4.50526 11.4098 4.59068C11.4977 4.67611 11.6019 4.74303 11.7162 4.78748C11.8304 4.83193 11.9524 4.85302 12.0749 4.84948C12.3134 4.84261 12.5397 4.74306 12.7059 4.57199C12.8721 4.40093 12.9651 4.17181 12.9651 3.93329C12.9651 3.69478 12.8721 3.46566 12.7059 3.29459C12.5397 3.12352 12.3134 3.02398 12.0749 3.0171Z" fill="#BCBDBD"/>
</svg>
