<svg width="16" height="16" viewBox="0 0 16 16" fill="none" xmlns="http://www.w3.org/2000/svg">
<path d="M3.33673 2.85099C3.33753 3.059 3.29736 3.26514 3.21849 3.45763C3.13963 3.65011 3.02362 3.82518 2.8771 3.97283C2.73058 4.12049 2.55641 4.23784 2.36453 4.31818C2.17266 4.39852 1.96684 4.44029 1.75883 4.44108C1.55081 4.44029 1.34499 4.39852 1.15312 4.31818C0.961243 4.23784 0.787073 4.12049 0.640551 3.97283C0.494028 3.82518 0.378024 3.65011 0.29916 3.45763C0.220297 3.26514 0.180119 3.059 0.180921 2.85099C0.179301 2.43095 0.344506 2.02744 0.640235 1.72914C0.935964 1.43084 1.33802 1.26215 1.75806 1.26013C1.96624 1.26083 2.17224 1.30254 2.3643 1.38288C2.55635 1.46321 2.7307 1.5806 2.87737 1.72834C3.02404 1.87607 3.14017 2.05126 3.21912 2.24389C3.29807 2.43651 3.33753 2.64281 3.33673 2.85099ZM3.34892 5.71347H0.167969V15.8925H3.34892V5.71347ZM8.42702 5.71347H5.26664V15.8925H8.42778V10.5493C8.42778 7.57785 12.2632 7.33556 12.2632 10.5493V15.8925H15.4365V9.44756C15.4365 4.43499 9.76035 4.61708 8.42702 7.08566V5.71347Z" fill="#BCBDBD"/>
</svg>
