<svg width="384" height="387" viewBox="0 0 384 387" fill="none" xmlns="http://www.w3.org/2000/svg">
<g clip-path="url(#clip0_187_1027)">
<path d="M36.0762 255.706L43.1508 259.122L59.6904 233.448L49.2482 228.406L36.0762 255.706Z" fill="#FFB6B6"/>
<path d="M32.2646 262.969L54.0209 273.475L54.1537 273.199C55.2377 270.953 55.3853 268.367 54.5638 266.012C53.7424 263.656 52.0194 261.723 49.7736 260.639L47.2546 255.703L38.3844 255.139L36.4852 254.222L32.2646 262.969Z" fill="#2F2E41"/>
<path d="M88.74 265.276L96.5953 265.276L100.333 234.961L88.7383 234.962L88.74 265.276Z" fill="#FFB6B6"/>
<path d="M88.4633 273.475L112.622 273.474V273.168C112.621 270.674 111.631 268.281 109.867 266.517C108.104 264.753 105.712 263.762 103.219 263.762H103.218L98.8051 260.413L90.5718 263.762L88.4629 263.762L88.4633 273.475Z" fill="#2F2E41"/>
<path d="M96.5253 124.684L105.528 186.789L106.293 200.748L101.571 244.308L103.488 248.529L98.1334 251.832H87.238L86.6598 205.818L78.4896 167.281L77.2259 210.96L75.4767 214.335C68.9612 229.124 60.1843 233.966 53.9794 245.02L43.0836 239.115L43.312 234.712C41.1231 233.604 46.5985 230.363 47.1246 227.966L48.0775 223.674L54.4334 210.503L54.6759 205.864L52.9364 174.317L53.755 131.835L68.0469 120.901L96.5253 124.684Z" fill="#2F2E41"/>
<path d="M82.8343 36.6391C90.6522 36.6391 96.9899 30.299 96.9899 22.478C96.9899 14.657 90.6522 8.31689 82.8343 8.31689C75.0164 8.31689 68.6787 14.657 68.6787 22.478C68.6787 30.299 75.0164 36.6391 82.8343 36.6391Z" fill="#FFB6B6"/>
<path d="M84.7821 136.145C66.1205 136.146 52.1216 129.114 51.9301 129.016L51.7643 128.931L51.8152 128.752C52.3162 126.996 52.7908 124.052 51.9321 123.623C51.8397 123.587 51.7577 123.529 51.6937 123.453C51.6297 123.378 51.5858 123.287 51.5661 123.19C51.5169 122.838 51.87 122.515 52.3588 122.068C53.3076 121.202 54.607 120.014 53.8449 118.109C52.5013 114.749 56.2792 97.5313 56.5235 96.4276L54.9099 68.9826C54.6159 63.7462 56.133 58.5682 59.2063 54.3191C62.2795 50.0701 66.7214 47.0091 71.7852 45.6509L71.8211 45.6413L71.8581 45.6438C72.3828 45.6733 72.9383 43.8907 73.3598 42.5863C73.9822 40.6584 74.3932 39.4737 75.0944 39.524C80.5226 39.8742 84.1397 40.1032 86.55 40.2529C91.12 40.537 91.9207 46.0977 92.0192 46.9854C96.9383 49.9841 100.785 54.4603 103.011 59.7754C105.237 65.0906 105.728 70.9732 104.414 76.584L102.136 86.3821L100.123 91.0899L100.786 100.378C103.909 102.975 103.014 108.288 102.836 109.186C105.811 112.264 103.984 115.888 103.541 116.655C104.303 117.586 104.821 118.691 105.049 119.872C105.277 121.053 105.209 122.272 104.849 123.42L107.589 132.328L107.382 132.4C100.113 134.911 92.4725 136.177 84.7821 136.145Z" fill="#3F3D56"/>
<path d="M172.48 43.1926C171.987 42.5551 171.361 42.0336 170.644 41.6647C169.928 41.2957 169.14 41.0884 168.334 41.0573C167.529 41.0262 166.727 41.1721 165.985 41.4846C165.242 41.7972 164.577 42.2689 164.036 42.8664L119.276 43.1101L106.559 49.2563L104.909 56.3005L125.458 55.4411L164.681 50.9593C165.745 51.8015 167.08 52.2241 168.435 52.1471C169.789 52.07 171.068 51.4987 172.029 50.5414C172.991 49.584 173.568 48.3071 173.651 46.9527C173.734 45.5983 173.317 44.2604 172.48 43.1926Z" fill="#FFB6B6"/>
<path d="M122.186 57.9196L104.763 66.1648L88.6097 59.4004L88.5936 59.2698C88.2892 56.8797 88.7087 54.4532 89.7976 52.3041C90.8866 50.155 92.595 48.3821 94.702 47.2148C98.0729 45.3352 101.748 44.0625 105.559 43.4547C116.243 41.8646 118.41 41.2539 118.431 41.2478L118.666 41.1797L122.186 57.9196Z" fill="#3F3D56"/>
<path d="M70.8312 31.3792C70.6565 31.3799 70.4828 31.3519 70.3172 31.2963C69.6668 31.0111 69.123 30.5277 68.7637 29.9149C66.2547 26.3051 65.0433 21.4921 65.1634 15.6097C65.2142 13.1211 65.4957 9.93919 67.2379 7.40289C68.7029 5.27019 71.6665 3.57769 74.4284 4.42727C74.3969 3.87476 74.5196 3.32439 74.7826 2.83754C75.0456 2.35068 75.4386 1.94651 75.9178 1.67009C76.9762 1.12618 78.1445 0.83092 79.3341 0.806767C82.1392 0.543755 85.0389 0.271875 87.8793 0.810307C91.0641 1.41461 93.6681 3.05677 95.0237 5.31564L95.0514 5.3866L95.327 6.72516C95.364 6.90511 95.4396 7.07489 95.5485 7.22282C95.6574 7.37074 95.797 7.49329 95.9578 7.58203C96.1186 7.67077 96.2967 7.72358 96.4799 7.73683C96.6631 7.75008 96.8469 7.72346 97.0188 7.65879C97.2064 7.58814 97.4092 7.56765 97.6072 7.59934C97.8051 7.63104 97.9914 7.71381 98.1476 7.83951C98.3038 7.96521 98.4245 8.12949 98.4979 8.31613C98.5712 8.50277 98.5947 8.70531 98.5659 8.90378L98.489 9.43625L99.2901 9.2863C99.4905 9.24891 99.6973 9.26533 99.8893 9.3339C100.081 9.40246 100.252 9.52071 100.383 9.67661C100.515 9.83251 100.602 10.0205 100.638 10.2214C100.673 10.4223 100.654 10.6289 100.584 10.8202L100.357 11.4325C100.523 11.4336 100.687 11.4686 100.839 11.5354C100.99 11.6022 101.127 11.6995 101.239 11.8211C101.401 11.9954 101.503 12.2169 101.531 12.4534C101.558 12.6899 101.509 12.9289 101.39 13.1354C100.495 14.667 99.2252 15.9454 97.6998 16.8502C96.8662 17.3519 95.9546 17.7106 95.0027 17.9113C88.8254 19.2449 82.4563 19.4365 76.21 18.4766C76.5798 19.7091 76.7222 20.9986 76.6301 22.2821C76.5759 23.0099 76.3237 23.7091 75.9007 24.3038C75.4777 24.8986 74.9001 25.3662 74.2305 25.656C73.9441 25.7492 73.6509 25.8199 73.3535 25.8675C73.0692 25.9118 72.7891 25.9799 72.5162 26.0711C72.1117 26.2197 71.7536 26.4725 71.4779 26.8038C71.2022 27.1351 71.0187 27.5333 70.946 27.9582C70.8732 28.383 70.9138 28.8196 71.0635 29.2238C71.2133 29.628 71.4669 29.9856 71.7989 30.2604L72.4191 29.6138L72.2174 30.4359C72.1753 30.5959 72.1 30.7453 71.9964 30.8743C71.8928 31.0033 71.7633 31.1091 71.6162 31.1848C71.3747 31.3136 71.1049 31.3804 70.8312 31.3792Z" fill="#2F2E41"/>
<path d="M165.625 203.97C210.273 203.97 246.467 168.314 246.467 124.331C246.467 80.3471 210.273 44.6914 165.625 44.6914C120.977 44.6914 84.7822 80.3471 84.7822 124.331C84.7822 168.314 120.977 203.97 165.625 203.97Z" fill="#E6E6E6"/>
<path d="M232.608 124.331C232.619 133.881 230.523 143.315 226.469 151.961C226.345 152.228 226.216 152.494 226.087 152.761C219.889 165.464 209.818 175.869 197.326 182.476C197.064 182.613 196.802 182.751 196.54 182.884C186.974 187.79 176.374 190.339 165.624 190.319C161.896 190.32 158.173 190.017 154.493 189.412C154.2 189.363 153.907 189.314 153.618 189.261C139.85 186.81 127.189 180.121 117.403 170.127C117.199 169.918 116.995 169.705 116.786 169.491C107.413 159.703 101.313 147.244 99.3292 133.836C99.2892 133.542 99.2448 133.249 99.2092 132.956C97.3987 119.323 99.9372 105.467 106.463 93.3631C106.601 93.1009 106.747 92.8387 106.889 92.581C111.915 83.602 118.952 75.9091 127.446 70.1051C127.691 69.9363 127.935 69.7718 128.179 69.6074C136.388 64.1474 145.695 60.5596 155.444 59.0983C155.737 59.0583 156.03 59.0138 156.323 58.9738C159.406 58.5519 162.513 58.3411 165.624 58.3429C175.422 58.3268 185.105 60.442 194.004 64.5417C194.275 64.6661 194.541 64.7906 194.808 64.9194C203.131 68.8923 210.545 74.5409 216.586 81.5119C216.782 81.7341 216.977 81.9607 217.164 82.1874C224.466 90.8085 229.403 101.179 231.493 112.284V112.288C231.551 112.577 231.6 112.866 231.649 113.159C232.289 116.849 232.61 120.586 232.608 124.331Z" fill="white"/>
<path d="M172.238 119.315C173.16 120.458 173.759 121.827 173.971 123.281L206.245 117.191C204.97 110.327 201.932 103.914 197.428 98.5811L172.238 119.315Z" fill="#6E257E"/>
<path d="M207.259 117.758C207.219 117.465 207.166 117.176 207.112 116.888V116.883C205.811 109.872 202.71 103.319 198.113 97.8689C197.922 97.6423 197.727 97.4156 197.531 97.1979C193.825 92.9741 189.317 89.53 184.268 87.0664H184.263C183.997 86.9375 183.735 86.8087 183.464 86.6842C176.058 83.282 167.834 82.0686 159.762 83.1871C159.468 83.2227 159.175 83.2671 158.882 83.316C153.033 84.242 147.444 86.3889 142.478 89.617C142.229 89.777 141.981 89.9414 141.736 90.1103C136.284 93.8082 131.777 98.737 128.58 104.499C128.437 104.756 128.295 105.019 128.153 105.285C124.159 112.89 122.658 121.558 123.862 130.063C123.898 130.361 123.942 130.654 123.996 130.943C125.34 139.136 129.132 146.73 134.874 152.725C135.074 152.939 135.278 153.152 135.491 153.361C141.535 159.455 149.289 163.565 157.723 165.145C158.016 165.203 158.309 165.252 158.602 165.301C167.59 166.793 176.82 165.377 184.947 161.257C185.209 161.124 185.467 160.986 185.729 160.844H185.733C193.417 156.732 199.634 150.333 203.523 142.532C203.656 142.265 203.785 141.999 203.91 141.732C207.419 134.262 208.587 125.905 207.259 117.758ZM203.101 141.363C202.977 141.634 202.848 141.901 202.715 142.163C198.903 149.786 192.823 156.039 185.311 160.062C185.049 160.2 184.787 160.337 184.525 160.471C176.575 164.503 167.545 165.887 158.753 164.421C158.46 164.377 158.163 164.328 157.874 164.27C149.632 162.723 142.054 158.708 136.144 152.757C135.931 152.548 135.727 152.334 135.522 152.121C129.912 146.26 126.201 138.842 124.875 130.836C124.826 130.547 124.782 130.254 124.742 129.961C123.565 121.639 125.031 113.158 128.935 105.716C129.068 105.454 129.21 105.192 129.357 104.93C132.492 99.2841 136.911 94.4556 142.256 90.8346C142.5 90.6658 142.745 90.5013 142.994 90.3458C147.843 87.1989 153.298 85.1038 159.007 84.1958C159.295 84.147 159.588 84.1025 159.886 84.067C167.786 82.9723 175.835 84.1611 183.082 87.493C183.353 87.613 183.619 87.7418 183.881 87.8707C188.816 90.2753 193.223 93.6377 196.847 97.7622C197.042 97.9844 197.238 98.211 197.424 98.4377C201.929 103.77 204.967 110.184 206.242 117.048C206.295 117.336 206.344 117.625 206.388 117.923C207.678 125.889 206.533 134.059 203.101 141.363Z" fill="#CCCCCC"/>
<path d="M162.537 117.701L161.813 118.216L142.256 90.8346L141.736 90.1103L127.446 70.1051C127.691 69.9363 127.935 69.7718 128.179 69.6074L142.478 89.6171L142.993 90.3458L162.537 117.701Z" fill="#CCCCCC"/>
<path d="M159.042 121.242L158.611 122.025L128.934 105.716L128.153 105.285L106.463 93.3631C106.601 93.1009 106.747 92.8388 106.889 92.5811L128.579 104.499L129.356 104.93L159.042 121.242Z" fill="#CCCCCC"/>
<path d="M158.665 126.873L124.875 130.836L123.996 130.943L99.3299 133.836C99.2899 133.542 99.2455 133.249 99.21 132.956L123.862 130.063L124.742 129.961L158.563 125.993L158.665 126.873Z" fill="#CCCCCC"/>
<path d="M160.845 129.858L136.144 152.756L135.491 153.361L117.404 170.126C117.199 169.918 116.995 169.704 116.786 169.491L134.874 152.725L135.522 152.121L160.241 129.205L160.845 129.858Z" fill="#CCCCCC"/>
<path d="M194.808 64.9192L184.267 87.0662H184.263L183.881 87.8705L169.471 118.149L168.672 117.767L183.081 87.4928L183.463 86.6841L194.004 64.5415C194.275 64.6659 194.541 64.7903 194.808 64.9192Z" fill="#CCCCCC"/>
<path d="M217.164 82.1872L198.113 97.8688L197.424 98.4375L171.382 119.874L170.817 119.189L196.847 97.7621L197.531 97.1977L216.587 81.5117C216.782 81.7339 216.978 81.9605 217.164 82.1872Z" fill="#CCCCCC"/>
<path d="M231.649 113.16L207.259 117.759L206.388 117.923L173.012 124.22L172.848 123.349L206.242 117.048L207.112 116.888V116.883L231.494 112.289C231.552 112.577 231.601 112.866 231.649 113.16Z" fill="#CCCCCC"/>
<path d="M226.469 151.961C226.345 152.228 226.216 152.494 226.087 152.761L203.523 142.532L202.714 142.163L172.238 128.348L172.607 127.539L203.101 141.363L203.909 141.732L226.469 151.961Z" fill="#CCCCCC"/>
<path d="M197.326 182.476C197.064 182.613 196.802 182.751 196.54 182.884L184.947 161.257L184.525 160.471L168.681 130.912L169.462 130.494L185.311 160.062L185.729 160.844H185.733L197.326 182.476Z" fill="#CCCCCC"/>
<path d="M164.336 131.627L158.753 164.421L158.602 165.301L154.493 189.412C154.2 189.363 153.907 189.314 153.618 189.261L157.723 165.145L157.874 164.27L163.457 131.476L164.336 131.627Z" fill="#CCCCCC"/>
<path d="M164.59 117.194L163.711 117.318L159.007 84.1957L158.882 83.3158L155.444 59.0981C155.737 59.0581 156.031 59.0137 156.324 58.9736L159.762 83.1869L159.886 84.0668L164.59 117.194Z" fill="#CCCCCC"/>
<path d="M165.625 132.645C170.286 132.645 174.065 128.922 174.065 124.331C174.065 119.739 170.286 116.017 165.625 116.017C160.964 116.017 157.186 119.739 157.186 124.331C157.186 128.922 160.964 132.645 165.625 132.645Z" fill="#3F3D56"/>
<path d="M339.236 356.75L332.919 362.041L309.51 340.184L318.833 332.374L339.236 356.75Z" fill="#A0616A"/>
<path d="M344.977 363.156L325.551 379.428L325.346 379.182C323.667 377.176 322.853 374.585 323.083 371.979C323.314 369.372 324.57 366.965 326.575 365.285L326.575 365.284L327.87 359.619L336.744 356.766L338.44 355.346L344.977 363.156Z" fill="#2F2E41"/>
<path d="M282.795 376.928L274.557 376.927L270.637 345.135L282.797 345.135L282.795 376.928Z" fill="#A0616A"/>
<path d="M283.086 385.526L257.749 385.525V385.204C257.749 382.588 258.788 380.079 260.638 378.229C262.487 376.379 264.995 375.339 267.611 375.339L272.239 371.827L280.874 375.34L283.086 375.34L283.086 385.526Z" fill="#2F2E41"/>
<path d="M303.403 224.789C305.393 227.278 304.398 235.74 304.398 235.74L304.886 288.44C313.345 295.409 319.823 324.342 319.823 324.342L327.9 339.208C326.904 342.194 320.448 353.873 318.458 353.375C317.535 353.144 306.04 342.539 298.395 326.811C289.564 308.642 284.495 285.019 284.495 285.019C284.495 285.019 285.49 352.715 285.49 355.701C285.49 358.688 272.056 357.195 269.07 357.195C266.085 357.195 250.718 235.242 250.718 235.242V228.273L253.206 224.789C253.206 224.789 301.413 222.3 303.403 224.789Z" fill="#2F2E41"/>
<path d="M196.442 112.267L190.408 115.084L197.133 113.676C197.133 113.676 202.074 113.877 202.074 111.865L210.119 107.438C210.119 107.438 216.957 111.06 218.969 109.048C220.98 107.036 217.36 103.012 217.36 103.012C217.36 103.012 219.783 101.674 219.577 101.136C219.371 100.597 216.153 101.402 216.153 101.402C216.153 101.402 208.51 96.9754 208.912 104.621L200.867 109.957C200.867 109.957 196.844 109.853 196.442 112.267Z" fill="#3F3D56"/>
<path d="M306.168 242.022C295.609 247.263 283.044 248.848 271.208 247.456C261.005 246.255 258.883 234.85 249.413 230.804C252.406 222.202 252.442 210.783 251.936 207.579C251.071 202.107 250.91 163.969 254.08 159.997C258.236 154.786 264.581 152.003 264.293 145.343L265.182 146.256C264.059 143.3 266.234 139.915 269.098 138.578C271.962 137.24 275.27 137.41 278.426 137.607C281.082 137.773 283.739 137.94 286.396 138.106C286.048 139.191 285.964 140.343 286.151 141.467C286.337 142.591 286.789 143.655 287.468 144.569C292.178 143.269 297.146 146.725 299.249 151.131C301.353 155.54 301.302 160.628 301.207 165.513C301.099 171.165 305.286 210.857 300.22 213.369C302.833 214.027 306.526 227.967 304.296 226.456C305.328 227.179 305.079 233.929 306.168 242.022Z" fill="#6E257E"/>
<path d="M203.526 105.698C204.665 105.363 205.863 105.282 207.036 105.461C208.209 105.64 209.329 106.073 210.317 106.732C211.304 107.39 212.136 108.257 212.752 109.271C213.368 110.286 213.755 111.423 213.885 112.603L258.688 152.012L250.598 157.388L206.129 121.704C204.133 121.79 202.174 121.141 200.625 119.879C199.075 118.617 198.042 116.831 197.721 114.858C197.4 112.885 197.814 110.863 198.884 109.175C199.954 107.486 201.605 106.25 203.526 105.698Z" fill="#A0616A"/>
<path d="M251.775 139.299C250.794 139.355 227.639 122.454 227.047 123.237L225.491 131.68L221.211 137.342L230.463 147.154L233.107 149.323L234.806 151.12C234.211 151.916 238.158 156.178 238.371 157.151C238.475 157.627 238.679 158.076 238.971 158.466C239.263 158.856 239.635 159.179 240.062 159.413L255.118 167.585C257.125 169.076 259.641 169.71 262.115 169.348C264.588 168.986 266.817 167.657 268.313 165.653C269.809 163.649 270.449 161.134 270.093 158.658C269.738 156.183 268.416 153.949 266.417 152.447L264.196 150.2L260.794 146.752L254.429 140.302C254.085 139.953 253.67 139.682 253.212 139.509C252.754 139.336 252.263 139.264 251.775 139.299Z" fill="#6E257E"/>
<path d="M276.752 133.144C285.772 133.144 293.084 125.829 293.084 116.805C293.084 107.782 285.772 100.467 276.752 100.467C267.732 100.467 260.42 107.782 260.42 116.805C260.42 125.829 267.732 133.144 276.752 133.144Z" fill="#A0616A"/>
<path d="M296.235 111.631C295.327 108.026 291.939 104.88 288.24 105.245C288.697 102.467 286.849 99.6704 284.358 98.3613C281.867 97.0523 278.891 96.9962 276.114 97.4521C274.502 97.7446 272.905 98.1179 271.33 98.5704C269.993 98.9302 263.727 96.7842 262.4 97.1759C261.264 97.5109 258.533 101.579 257.671 102.391C256.809 103.203 256.353 104.569 256.928 105.603C257.497 106.625 258.797 106.957 259.962 107.053C261.126 107.149 262.378 107.132 263.345 107.789C264.587 108.633 264.939 110.316 264.889 111.818C264.838 113.319 264.494 114.834 264.774 116.31C265.054 117.786 266.248 119.26 267.747 119.159C268.869 117.976 270.918 118.052 272.205 119.053C272.82 119.591 273.312 120.256 273.646 121.002C273.981 121.748 274.15 122.557 274.143 123.374C274.116 125.007 273.863 126.628 273.389 128.191C273.119 129.27 272.916 130.578 273.715 131.352C274.186 131.727 274.752 131.963 275.349 132.034C277.707 132.535 286.556 131.856 288.914 132.357L288.732 131.997C290.44 128.694 292.707 125.704 294.386 122.387C296.065 119.07 297.143 115.236 296.235 111.631Z" fill="#2F2E41"/>
<path d="M321.304 246.569C320.15 246.293 319.071 245.767 318.142 245.028C317.213 244.289 316.458 243.355 315.928 242.292C315.399 241.229 315.11 240.064 315.08 238.877C315.05 237.69 315.28 236.511 315.755 235.423L296.5 178.935L306.192 178.299L327.009 231.391C328.783 232.31 330.159 233.848 330.876 235.714C331.592 237.58 331.599 239.644 330.896 241.515C330.193 243.386 328.828 244.934 327.06 245.865C325.292 246.797 323.244 247.047 321.304 246.569Z" fill="#A0616A"/>
<path d="M292.041 186.32C292.92 186.759 304.594 212.947 305.498 212.562L311.048 206.015L317.577 203.235L314.433 190.118L313.22 186.92L312.64 184.515C313.551 184.121 312.249 178.459 312.548 177.509C312.695 177.044 312.741 176.554 312.682 176.07C312.623 175.586 312.461 175.121 312.207 174.705L303.214 160.121C302.215 157.828 300.347 156.026 298.022 155.108C295.696 154.191 293.101 154.233 290.807 155.227C288.513 156.22 286.706 158.083 285.783 160.408C284.859 162.732 284.895 165.328 285.882 167.625L286.691 170.68L287.925 175.365L290.238 184.128C290.362 184.602 290.588 185.044 290.899 185.422C291.21 185.8 291.6 186.107 292.041 186.32Z" fill="#6E257E"/>
<path d="M366.546 376.178L361.996 368.864L361.087 373.044C360.928 373.776 360.769 374.52 360.621 375.257C359.329 374.153 357.954 373.132 356.609 372.152C352.478 369.153 348.349 366.151 344.223 363.144L345.515 370.641C346.312 375.257 347.144 379.968 349.115 384.189C349.333 384.667 349.569 385.139 349.823 385.6H369.024C369.179 385.172 369.286 384.729 369.343 384.277C369.348 384.248 369.35 384.219 369.349 384.189C369.65 381.326 368.068 378.628 366.546 376.178Z" fill="#F0F0F0"/>
<path d="M382.797 386.318L220.08 386.5C219.893 386.5 219.715 386.426 219.583 386.294C219.451 386.162 219.377 385.983 219.377 385.797C219.377 385.61 219.451 385.432 219.583 385.3C219.715 385.168 219.893 385.094 220.08 385.094L382.797 384.913C382.89 384.912 382.981 384.93 383.067 384.966C383.152 385.001 383.23 385.052 383.295 385.118C383.361 385.183 383.413 385.261 383.448 385.346C383.484 385.431 383.502 385.523 383.502 385.615C383.502 385.708 383.484 385.8 383.448 385.885C383.413 385.97 383.361 386.048 383.295 386.113C383.23 386.178 383.152 386.23 383.067 386.265C382.981 386.301 382.89 386.319 382.797 386.318Z" fill="#CACACA"/>
<path d="M147.668 263.738L143.118 256.424L142.21 260.604C142.05 261.336 141.891 262.08 141.743 262.818C140.451 261.714 139.076 260.692 137.731 259.712C133.6 256.714 129.472 253.711 125.345 250.704L126.637 258.201C127.434 262.818 128.266 267.528 130.237 271.749C130.455 272.227 130.691 272.7 130.945 273.16H150.146C150.301 272.732 150.408 272.289 150.465 271.838C150.47 271.808 150.472 271.779 150.471 271.749C150.772 268.886 149.19 266.188 147.668 263.738Z" fill="#F0F0F0"/>
<path d="M163.92 273.878L1.20252 274.06C1.01653 274.059 0.838356 273.985 0.70703 273.853C0.575704 273.722 0.501953 273.543 0.501953 273.357C0.501953 273.171 0.575704 272.992 0.70703 272.861C0.838356 272.729 1.01653 272.655 1.20252 272.654L163.92 272.473C164.013 272.472 164.104 272.49 164.19 272.526C164.275 272.561 164.353 272.613 164.418 272.678C164.484 272.743 164.536 272.821 164.571 272.906C164.606 272.992 164.625 273.083 164.625 273.176C164.625 273.268 164.606 273.36 164.571 273.445C164.536 273.53 164.484 273.608 164.418 273.673C164.353 273.739 164.275 273.79 164.19 273.826C164.104 273.861 164.013 273.879 163.92 273.878Z" fill="#CACACA"/>
<path d="M88.6627 138.165C87.8965 137.916 87.1942 137.502 86.6052 136.952C86.0163 136.402 85.555 135.729 85.254 134.981C84.953 134.234 84.8194 133.429 84.8628 132.624C84.9062 131.82 85.1255 131.034 85.5052 130.323L70.624 88.0919L72.114 74.0417L78.1853 70.1104L84.3137 89.7508L93.3379 128.199C94.4893 128.916 95.3378 130.031 95.7225 131.332C96.1072 132.633 96.0014 134.031 95.4251 135.259C94.8489 136.487 93.8422 137.462 92.5958 137.997C91.3495 138.533 89.9501 138.592 88.6627 138.165Z" fill="#FFB6B6"/>
<path d="M62.6055 59.2633L76.6797 53.8135L84.8513 81.0633L65.9896 87.0426L62.6055 59.2633Z" fill="#3F3D56"/>
</g>
<defs>
<clipPath id="clip0_187_1027">
<rect width="383" height="386" fill="white" transform="translate(0.5 0.5)"/>
</clipPath>
</defs>
</svg>
