<svg width="57" height="50" viewBox="0 0 57 50" fill="none" xmlns="http://www.w3.org/2000/svg">
<path d="M28.5007 28.3332C30.976 28.3332 33.35 27.3498 35.1003 25.5995C36.8507 23.8492 37.834 21.4752 37.834 18.9998C37.834 16.5245 36.8507 14.1505 35.1003 12.4002C33.35 10.6498 30.976 9.6665 28.5007 9.6665C26.0253 9.6665 23.6513 10.6498 21.901 12.4002C20.1506 14.1505 19.1673 16.5245 19.1673 18.9998C19.1673 21.4752 20.1506 23.8492 21.901 25.5995C23.6513 27.3498 26.0253 28.3332 28.5007 28.3332ZM28.5007 28.3332C24.7876 28.3332 21.2267 29.8082 18.6012 32.4337C15.9756 35.0592 14.5007 38.6201 14.5007 42.3332V49.3332M28.5007 28.3332C32.2137 28.3332 35.7746 29.8082 38.4002 32.4337C41.0257 35.0592 42.5007 38.6201 42.5007 42.3332V49.3332M30.834 9.6665C31.7767 5.78384 35.5357 2.6665 40.1673 2.6665C45.2353 2.6665 49.454 6.84317 49.5007 11.9998C49.454 17.1565 45.2353 21.3332 40.1673 21.3332M40.1673 21.3332H37.834M40.1673 21.3332C47.8393 21.3332 54.1673 27.6005 54.1673 35.3332V39.9998M26.1673 9.6665C25.2247 5.78384 21.4657 2.6665 16.834 2.6665C11.766 2.6665 7.54732 6.84317 7.50065 11.9998C7.54732 17.1565 11.766 21.3332 16.834 21.3332M16.834 21.3332H19.1673M16.834 21.3332C9.16198 21.3332 2.83398 27.6005 2.83398 35.3332V39.9998" stroke="black" stroke-width="4"/>
</svg>
