<svg width="16" height="13" viewBox="0 0 16 13" fill="none" xmlns="http://www.w3.org/2000/svg">
<path d="M16 1.63851C15.4284 1.8918 14.822 2.05797 14.2012 2.13146C14.8553 1.74032 15.3447 1.12446 15.5779 0.398892C14.9632 0.76377 14.2907 1.02093 13.5894 1.15927C13.2963 0.84635 12.942 0.597017 12.5486 0.426759C12.1551 0.256502 11.7308 0.168956 11.3021 0.169559C9.28002 0.169559 7.79354 2.0568 8.25068 4.01565C7.00517 3.95327 5.7867 3.62962 4.67439 3.06572C3.56209 2.50183 2.58082 1.71029 1.7943 0.742511C1.39375 1.43227 1.27101 2.2487 1.45105 3.02574C1.63108 3.80278 2.10037 4.48205 2.76345 4.92537C2.26629 4.9095 1.78013 4.77496 1.34554 4.53299C1.31125 5.98442 2.35125 7.34213 3.85754 7.64461C3.39614 7.7699 2.91221 7.78814 2.44268 7.69794C2.64267 8.32045 3.03231 8.86484 3.55707 9.25489C4.08183 9.64494 4.71543 9.86112 5.36916 9.87318C4.05615 10.9029 2.38819 11.3696 0.731445 11.1707C2.16393 12.091 3.83107 12.5796 5.53373 12.5779C11.3493 12.5779 14.6354 7.66594 14.4366 3.25984C15.0497 2.81664 15.5791 2.2679 16 1.63927V1.63851Z" fill="#BCBDBD"/>
</svg>
