<svg width="43" height="52" viewBox="0 0 43 52" fill="none" xmlns="http://www.w3.org/2000/svg">
<path d="M0.5 0.333496H29.466L42.5 13.3675V51.6668H0.5V0.333496ZM5.16667 5.00016V47.0002H37.8333V15.2995L27.534 5.00016H5.16667ZM21.5 19.0002C20.5717 19.0002 19.6815 19.3689 19.0251 20.0253C18.3687 20.6817 18 21.5719 18 22.5002C18 23.4284 18.3687 24.3187 19.0251 24.975C19.6815 25.6314 20.5717 26.0002 21.5 26.0002C22.4283 26.0002 23.3185 25.6314 23.9749 24.975C24.6313 24.3187 25 23.4284 25 22.5002C25 21.5719 24.6313 20.6817 23.9749 20.0253C23.3185 19.3689 22.4283 19.0002 21.5 19.0002ZM13.3333 22.5002C13.3333 21.4277 13.5446 20.3657 13.955 19.3749C14.3654 18.3841 14.9669 17.4838 15.7253 16.7255C16.4836 15.9671 17.3839 15.3656 18.3748 14.9551C19.3656 14.5447 20.4275 14.3335 21.5 14.3335C22.5725 14.3335 23.6344 14.5447 24.6252 14.9551C25.6161 15.3656 26.5164 15.9671 27.2747 16.7255C28.033 17.4838 28.6346 18.3841 29.045 19.3749C29.4554 20.3657 29.6667 21.4277 29.6667 22.5002C29.6667 24.6661 28.8063 26.7433 27.2747 28.2749C25.7432 29.8064 23.6659 30.6668 21.5 30.6668C19.3341 30.6668 17.2568 29.8064 15.7253 28.2749C14.1937 26.7433 13.3333 24.6661 13.3333 22.5002ZM7.5 42.3335C7.5 39.8581 8.48333 37.4842 10.2337 35.7338C11.984 33.9835 14.358 33.0002 16.8333 33.0002H26.1667C28.642 33.0002 31.016 33.9835 32.7663 35.7338C34.5167 37.4842 35.5 39.8581 35.5 42.3335V44.6668H30.8333V42.3335C30.8333 41.0958 30.3417 39.9088 29.4665 39.0337C28.5913 38.1585 27.4043 37.6668 26.1667 37.6668H16.8333C15.5957 37.6668 14.4087 38.1585 13.5335 39.0337C12.6583 39.9088 12.1667 41.0958 12.1667 42.3335V44.6668H7.5V42.3335Z" fill="black"/>
</svg>
