<svg width="406" height="385" viewBox="0 0 406 385" fill="none" xmlns="http://www.w3.org/2000/svg">
<g clip-path="url(#clip0_186_993)">
<path d="M385.604 91.4062C385.801 91.1162 390.701 96.0521 395.159 95.0363C400.712 93.771 404.773 83.4524 401.762 79.0389C399.77 76.118 394.814 75.9807 394.917 75.4329C395.027 74.8467 400.361 76.8116 403.262 74.4647C406.787 71.6137 406.05 62.9428 401.738 58.3947C400.875 57.4848 399.442 55.9733 397.384 55.8536C393.341 55.6184 390.167 60.9432 388.772 63.2836C384.337 70.7246 383.974 78.5313 383.427 78.4582C382.921 78.3906 384.264 71.8577 381.83 70.5201C381.297 70.227 380.663 70.2311 380.034 70.3767C380.193 69.9645 380.308 69.5401 380.366 69.1038C380.731 66.3525 378.546 63.4276 375.964 60.9757C378.653 62.5693 381.692 63.6743 384.381 62.8839C390.388 61.1182 394.384 49.9754 391.227 43.1352C389.021 38.3577 383.397 35.8336 383.583 35.5601C383.779 35.2701 388.68 40.206 393.137 39.1902C398.69 37.9249 402.752 27.6063 399.741 23.1928C397.748 20.2719 392.792 20.1346 392.895 19.5868C393.006 19.0006 398.339 20.9656 401.241 18.6187C404.766 15.7676 404.029 7.09669 399.717 2.54868C398.854 1.63869 397.421 0.127225 395.362 0.0075417C391.32 -0.227605 388.146 5.09715 386.751 7.43759C382.316 14.8785 381.952 22.6853 381.405 22.6122C380.9 22.5446 382.242 16.0116 379.809 14.674C378.285 13.8364 375.941 15.3989 375.213 15.8841C367.207 21.2204 369.425 32.8238 362.03 45.1684C359.648 49.1432 357.276 51.5166 355.274 53.312C354.359 42.2592 357.728 33.7746 352.625 27.3478C352.081 26.6625 350.329 24.4559 348.622 24.7853C345.895 25.3114 345.17 31.9415 344.668 31.8506C344.125 31.7523 346.173 24.2104 344.233 15.767C343.623 13.1112 342.235 7.06904 338.315 6.05202C336.319 5.53419 334.492 6.53288 333.392 7.13413C327.893 10.1392 324.533 18.1659 327.013 21.9613C329.055 25.0857 334.734 24.8526 334.66 25.4444C334.59 25.9975 329.831 24.6069 327.038 26.7753C322.819 30.0517 323.521 41.1195 328.418 44.0282C332.349 46.3631 338.527 43.1695 338.625 43.5059C338.718 43.8232 332.591 44.4993 329.027 48.3694C327.548 49.9759 326.533 52.1124 325.959 54.4207C321.106 54.7857 316.951 58.2653 316.796 57.9971C316.62 57.694 323.191 55.4164 324.209 50.9575C325.478 45.4029 317.946 37.266 312.665 38.0665C309.171 38.5962 306.898 43.0047 306.449 42.6741C305.969 42.3205 310.052 38.3643 309.196 34.7307C308.157 30.3166 300.029 27.2202 294.062 29.1355C292.869 29.5187 290.886 30.1552 289.886 31.9588C287.921 35.5013 291.34 40.6718 292.843 42.9444C297.621 50.1698 304.494 53.8831 304.191 54.3446C303.91 54.7713 298.609 50.7274 296.349 52.3414C294.934 53.352 295.324 56.1428 295.446 57.0096C296.78 66.5412 308.192 69.5733 316.102 81.5944C322.544 91.3833 319.795 96.6961 325.253 99.3494C327.595 100.488 330.578 100.709 333.627 100.16C331.268 115.969 330.601 143.005 330.601 143.005C329.935 170.049 326.46 192.321 324.939 192.278C324.094 192.252 324.405 185.44 321.847 174.486C320.051 166.805 319.203 167.159 314.54 153.455C307.141 131.717 303.442 120.852 303.434 120.792C303.395 120.32 303.33 119.366 303.06 118.401C308.537 116.868 313.855 112.94 315.702 107.428C317.18 103.018 316.792 96.468 313.197 94.1082C310.877 92.5857 307.296 93.2869 303.968 94.5509C306.569 92.8181 308.882 90.5575 309.336 87.7908C310.351 81.6099 302.049 73.1745 294.519 73.0548C289.26 72.9712 284.548 76.9467 284.382 76.6608C284.206 76.3577 290.777 74.0801 291.795 69.6212C293.063 64.0666 285.532 55.9297 280.251 56.7302C276.756 57.2599 274.483 61.6684 274.035 61.3378C273.555 60.9842 277.637 57.028 276.782 53.3944C275.743 48.9803 267.614 45.8839 261.648 47.7992C260.454 48.1824 258.472 48.8189 257.471 50.6225C255.506 54.165 258.925 59.3355 260.428 61.6081C265.206 68.8335 272.08 72.5468 271.776 73.0084C271.496 73.435 266.195 69.3911 263.935 71.0051C262.519 72.0157 262.91 74.8065 263.031 75.6733C264.365 85.2049 275.778 88.237 283.688 100.258C290.129 110.047 287.381 115.36 292.838 118.013C293.783 118.472 294.833 118.778 295.948 118.949L295.948 118.954C296.428 126.428 309.886 146.514 317.376 175.073C321.107 189.301 323.149 197.063 321.679 207.871C320.228 218.587 316.197 225.819 316.27 230.594C316.276 231.041 316.315 231.452 316.398 231.851L338.518 228.946C338.666 228.517 338.783 228.077 338.875 227.625C340.56 219.495 334.414 207.139 337.537 187.211C339.856 172.424 346.211 160.261 349.174 154.594C352.814 147.626 357.115 141.071 361.76 130.892C364.741 132.535 368.122 133.407 371.477 132.985C376.09 132.405 381.821 129.214 382.387 124.95C382.752 122.199 380.567 119.274 377.986 116.822C380.674 118.415 383.714 119.52 386.402 118.73C392.409 116.964 396.406 105.821 393.248 98.9812C391.042 94.2038 385.418 91.6796 385.604 91.4062ZM295.609 98.6926C295.593 98.6606 295.824 98.5601 296.226 98.3967C295.847 98.6097 295.625 98.7247 295.609 98.6926ZM369.143 55.6643C368.787 55.4149 368.587 55.2648 368.609 55.2363C368.631 55.2078 368.822 55.3724 369.143 55.6643ZM346.203 67.0726C346.599 66.8935 346.831 66.7954 346.843 66.8292C346.855 66.8631 346.619 66.9445 346.203 67.0726ZM328.023 80.029C328.007 79.9969 328.238 79.8963 328.64 79.7329C328.261 79.9459 328.039 80.061 328.023 80.029ZM334.387 137.2C333.856 137.081 340.316 110.938 341.375 97.059C344.441 95.048 346.959 92.2164 348.116 88.7643C348.136 88.7043 348.155 88.6424 348.174 88.5817C348.787 88.4966 349.397 88.3811 350.001 88.2387C347.84 93.7077 346.633 97.6791 346.633 97.6791C341.019 116.182 334.871 137.311 334.387 137.2ZM358.497 128.666C356.724 131.386 354.647 134.729 351.786 139.844C344.448 152.948 340.783 159.495 339.819 164.164C339.565 165.41 338.229 172.152 335.167 180.698C333.602 185.059 332.819 187.239 332.224 187.151C330.538 186.894 330.51 169.693 335.176 151.883C335.976 148.851 336.613 146.894 337.826 143.194C339.792 137.158 350.753 103.606 359.375 83.2517L359.376 83.249C360.969 81.7219 362.16 79.9753 362.745 78.1365C362.931 77.5495 363.036 77.0063 363.078 76.4896C365.14 77.1455 367.303 77.4097 369.456 77.1389C370.66 76.9875 371.94 76.6567 373.185 76.1769C369.741 82.2815 369.797 91.4234 364.051 101.015C358.028 111.067 352.052 110.893 352.029 116.964C352.014 120.995 354.637 125.455 358.5 128.662L358.497 128.666ZM370.631 111.082C370.652 111.054 370.843 111.218 371.165 111.51C370.809 111.261 370.609 111.111 370.631 111.082Z" fill="#F2F2F2"/>
<path d="M139.307 84.9415C142.685 84.3784 146.36 88.5054 147.895 90.229C151.994 94.8308 152.849 100.184 153.18 102.456C158.402 138.316 161.013 156.245 150.207 164.585C139.938 172.51 121.166 170.385 117.507 163.263C116.082 160.488 117.274 157.586 119.159 152.027C122.643 141.752 124.696 131.044 127.747 120.632C134.712 96.8586 134.127 85.8052 139.307 84.9415Z" fill="#2F2E41"/>
<path d="M47.1522 218.781L30.7168 249.817C26.5213 257.74 6.66848 379.783 15.4971 381.321L53.7394 382.59L69.6067 383.423L85.9161 383.658L126.343 385L103.634 226.052L47.1522 218.781Z" fill="#2F2E41"/>
<path d="M87.6145 127.737L120.315 129.059L122.957 139.965L130.832 146.392C133.727 148.755 135.147 152.481 134.56 156.173L130.884 179.29C130.884 179.29 137.821 195.814 120.315 206.389L102.808 234.809L42.0325 228.53C42.0325 228.53 36.4173 227.869 40.381 223.904C44.3446 219.938 49.2992 200.441 49.2992 200.441C49.2992 200.441 48.6386 191.848 50.9507 189.535C53.2628 187.222 51.6529 181.273 51.6529 181.273L61.0576 146.492C62.8902 139.714 69.0365 135.008 76.0541 135.008H86.4831L87.6145 127.737Z" fill="#6E257E"/>
<path d="M339.167 350.131L53.585 273.768C47.4836 272.137 43.2319 267.226 42.4891 260.951C41.7462 254.676 44.7336 248.907 50.285 245.894L166.344 182.92C169.277 181.328 172.706 180.75 175.998 181.294L367.828 212.933C371.923 213.609 375.472 215.867 377.821 219.29C380.17 222.714 381 226.838 380.157 230.905L357.851 338.602C356.999 342.713 354.563 346.19 350.992 348.394C348.571 349.888 345.861 350.652 343.104 350.652C341.794 350.652 340.472 350.48 339.167 350.131Z" fill="white"/>
<path d="M339.167 350.131L53.585 273.768C47.4836 272.137 43.2319 267.226 42.4891 260.951C41.7462 254.676 44.7336 248.907 50.285 245.894L166.344 182.92C169.277 181.328 172.706 180.75 175.998 181.294L367.828 212.933C371.923 213.609 375.472 215.867 377.821 219.29C380.17 222.714 381 226.838 380.157 230.905L357.851 338.602C356.999 342.713 354.563 346.19 350.992 348.394C348.571 349.888 345.861 350.652 343.104 350.652C341.794 350.652 340.472 350.48 339.167 350.131ZM367.572 214.489L175.742 182.849C172.793 182.362 169.722 182.88 167.095 184.306L51.0366 247.28C46.0643 249.978 43.3887 255.145 44.0541 260.765C44.7195 266.385 48.5274 270.784 53.9918 272.245L339.573 348.608C343.204 349.578 346.966 349.026 350.165 347.052C353.363 345.078 355.545 341.963 356.307 338.281L378.614 230.584C379.368 226.943 378.625 223.249 376.522 220.182C374.418 217.116 371.24 215.094 367.572 214.489Z" fill="#CCCCCC"/>
<path d="M326.082 244.137L300.614 308.435C298.145 314.668 291.213 317.858 284.876 315.676L97.6802 251.235C87.344 247.677 86.1893 233.513 95.8125 228.326L156.055 195.855C158.676 194.442 161.714 194.008 164.626 194.631L317.047 227.246C324.631 228.869 328.939 236.923 326.082 244.137Z" fill="#F2F2F2"/>
<path d="M277.044 254.803C282.882 254.803 287.614 252.435 287.614 249.515C287.614 246.595 282.882 244.228 277.044 244.228C271.207 244.228 266.475 246.595 266.475 249.515C266.475 252.435 271.207 254.803 277.044 254.803Z" fill="#FF6884"/>
<path d="M267.135 270.995C272.973 270.995 277.705 268.628 277.705 265.708C277.705 262.788 272.973 260.42 267.135 260.42C261.298 260.42 256.565 262.788 256.565 265.708C256.565 268.628 261.298 270.995 267.135 270.995Z" fill="#3F3D56"/>
<path d="M210.322 258.272C226.193 258.272 239.059 251.836 239.059 243.897C239.059 235.958 226.193 229.521 210.322 229.521C194.452 229.521 181.586 235.958 181.586 243.897C181.586 251.836 194.452 258.272 210.322 258.272Z" fill="#6E257E"/>
<path d="M160.447 243.236C160.854 243.236 161.237 242.982 161.381 242.576C161.563 242.06 161.293 241.493 160.778 241.31L139.808 233.874C139.294 233.692 138.727 233.962 138.543 234.478C138.361 234.994 138.631 235.561 139.147 235.744L160.116 243.179C160.225 243.218 160.337 243.236 160.447 243.236Z" fill="#3F3D56"/>
<path d="M165.071 239.602C165.478 239.602 165.861 239.348 166.005 238.941C166.187 238.425 165.917 237.858 165.402 237.675L144.433 230.24C143.918 230.057 143.351 230.327 143.167 230.843C142.985 231.359 143.255 231.926 143.771 232.109L164.74 239.544C164.849 239.583 164.961 239.602 165.071 239.602Z" fill="#3F3D56"/>
<path d="M169.695 235.966C170.102 235.966 170.485 235.712 170.629 235.306C170.811 234.789 170.541 234.223 170.026 234.04L149.057 226.604C148.542 226.422 147.974 226.691 147.791 227.208C147.609 227.724 147.879 228.29 148.395 228.473L169.364 235.909C169.473 235.948 169.585 235.966 169.695 235.966Z" fill="#3F3D56"/>
<path d="M174.32 232.331C174.727 232.331 175.11 232.077 175.254 231.67C175.436 231.154 175.166 230.588 174.651 230.405L153.682 222.969C153.167 222.787 152.599 223.056 152.416 223.573C152.234 224.089 152.504 224.655 153.02 224.838L173.989 232.274C174.098 232.313 174.21 232.331 174.32 232.331Z" fill="#3F3D56"/>
<path d="M178.944 228.696C179.351 228.696 179.734 228.442 179.878 228.035C180.06 227.519 179.791 226.952 179.275 226.769L158.306 219.334C157.791 219.152 157.224 219.421 157.04 219.937C156.858 220.453 157.128 221.02 157.644 221.203L178.613 228.639C178.722 228.677 178.834 228.696 178.944 228.696Z" fill="#3F3D56"/>
<path d="M183.568 225.061C183.976 225.061 184.358 224.807 184.502 224.4C184.685 223.884 184.415 223.318 183.899 223.135L162.93 215.699C162.415 215.517 161.848 215.786 161.664 216.302C161.482 216.818 161.752 217.385 162.268 217.568L183.237 225.004C183.346 225.042 183.458 225.061 183.568 225.061Z" fill="#3F3D56"/>
<path d="M188.192 221.426C188.6 221.426 188.982 221.172 189.126 220.765C189.309 220.249 189.039 219.682 188.523 219.499L167.554 212.064C167.039 211.881 166.472 212.151 166.289 212.667C166.106 213.183 166.376 213.75 166.892 213.933L187.861 221.369C187.97 221.407 188.082 221.426 188.192 221.426Z" fill="#3F3D56"/>
<path d="M117.507 138.477C132.465 138.477 144.592 126.345 144.592 111.379C144.592 96.4127 132.465 84.2803 117.507 84.2803C102.548 84.2803 90.4219 96.4127 90.4219 111.379C90.4219 126.345 102.548 138.477 117.507 138.477Z" fill="#A0616A"/>
<path d="M123.122 71.0617C115.496 69.818 111.401 69.1502 107.268 70.0703C98.9867 71.9135 94.1832 79.3205 90.7524 84.6109C82.5482 97.2621 86.2575 102.579 78.2009 120.302C72.4214 133.015 69.5077 132.49 68.9524 139.138C67.7868 153.095 79.6531 167.056 92.404 172.516C93.2555 172.88 106.507 178.428 110.24 173.838C112.978 170.472 108.142 164.68 102.313 149.052C92.0631 121.574 96.9065 112.39 98.3494 110.057C99.2611 108.583 101.861 104.92 103.304 105.431C104.609 105.893 103.479 109.246 104.625 112.04C107.695 119.526 126.355 121.188 140.959 115.345C145.265 113.621 147.908 112.564 149.877 109.727C156.557 100.1 148.582 79.9263 136.004 74.0359C133.143 72.6959 129.803 72.1512 123.122 71.0617Z" fill="#2F2E41"/>
<path d="M103.757 232.515C110.344 235.858 113.96 241.968 111.833 246.162C109.706 250.356 102.643 251.045 96.0533 247.7C93.4028 246.4 91.1021 244.484 89.3435 242.112L61.6113 227.595L68.6976 214.72L95.2843 230.398C98.2371 230.416 101.142 231.142 103.757 232.515Z" fill="#A0616A"/>
<path d="M233.459 213.837C240.398 216.369 244.717 222.003 243.105 226.421C241.494 230.84 234.563 232.367 227.622 229.833C224.835 228.859 222.322 227.231 220.293 225.086L191.027 213.986L196.527 200.356L224.794 212.747C227.728 212.412 230.699 212.786 233.459 213.837Z" fill="#A0616A"/>
<path d="M72.2552 141.782C72.2552 141.782 66.6401 130.216 53.7582 139.139C40.8763 148.061 10.158 185.074 10.158 185.074C10.158 185.074 -5.6966 198.953 3.22162 203.91C12.1398 208.868 76.2189 237.618 76.2189 237.618L92.4038 226.382L34.9308 196.971L67.9444 172.185L72.2552 141.782Z" fill="#6E257E"/>
<path d="M128.407 148.722C128.407 148.722 132.337 143.104 139.29 148.722C146.243 154.34 166.255 186.688 166.255 186.688L215.607 206.885L208.34 221.756L149.216 200.606L123.452 165.576L128.407 148.722Z" fill="#6E257E"/>
<path d="M125.269 138.643C117.779 142.469 121.225 148.345 120.975 149.548C118.541 161.264 127.44 173.398 130.885 172.681C132.905 172.26 133.967 167.225 133.527 163.428C132.956 158.506 137.687 150.715 137.16 147.235C135.868 138.698 143.667 138.538 142.115 135.338C141.205 133.463 129.733 136.362 125.269 138.643Z" fill="#2F2E41"/>
<path d="M212.098 259.032C212.129 259.032 212.161 259.031 212.192 259.027C212.624 258.976 212.933 258.584 212.882 258.151L211.105 243.143C211.081 242.936 210.974 242.746 210.81 242.617C210.645 242.487 210.437 242.429 210.229 242.454L182.013 245.848C181.581 245.9 181.273 246.293 181.325 246.725C181.377 247.158 181.77 247.468 182.202 247.414L209.633 244.114L211.317 258.337C211.364 258.738 211.704 259.032 212.098 259.032Z" fill="white"/>
<path d="M66.8061 273.528C74.9298 273.528 81.5155 266.939 81.5155 258.811C81.5155 250.683 74.9298 244.094 66.8061 244.094C58.6823 244.094 52.0967 250.683 52.0967 258.811C52.0967 266.939 58.6823 273.528 66.8061 273.528Z" fill="#6E257E"/>
<path d="M60.1232 256.515L64.851 264.834C65.1323 265.329 65.9401 265.365 66.2118 264.834C68.0583 261.227 70.6662 258.033 73.8808 255.558C74.2205 255.296 74.393 254.883 74.1635 254.479C73.9734 254.145 73.422 253.937 73.0853 254.196C69.6518 256.84 66.8281 260.175 64.851 264.038H66.2118L61.484 255.72C60.9827 254.838 59.6206 255.631 60.1232 256.515Z" fill="white"/>
</g>
<defs>
<clipPath id="clip0_186_993">
<rect width="405" height="385" fill="white" transform="translate(0.5)"/>
</clipPath>
</defs>
</svg>
