<svg width="56" height="46" viewBox="0 0 56 46" fill="none" xmlns="http://www.w3.org/2000/svg">
<path d="M27.9994 34.2001C27.2675 34.2034 26.5433 34.3509 25.8684 34.6341C25.1934 34.9174 24.5809 35.3308 24.0658 35.8509C23.5507 36.3709 23.1431 36.9874 22.8663 37.665C22.5895 38.3426 22.449 39.0681 22.4526 39.8001C22.4526 42.8913 24.9362 45.4001 27.9994 45.4001C28.7312 45.3964 29.455 45.2486 30.1296 44.9652C30.8043 44.6818 31.4164 44.2683 31.9313 43.7483C32.4461 43.2283 32.8534 42.612 33.13 41.9345C33.4066 41.2571 33.5471 40.5318 33.5434 39.8001C33.5434 36.7061 31.0626 34.2001 27.9994 34.2001ZM16.2394 27.9225L20.1594 31.8817C21.184 30.8427 22.4048 30.0176 23.7509 29.4545C25.097 28.8914 26.5417 28.6014 28.0008 28.6014C29.46 28.6014 30.9046 28.8914 32.2508 29.4545C33.5969 30.0176 34.8177 30.8427 35.8422 31.8817L39.7594 27.9225C38.223 26.3641 36.3922 25.1266 34.3733 24.282C32.3545 23.4373 30.1879 23.0024 27.9994 23.0024C25.811 23.0024 23.6444 23.4373 21.6256 24.282C19.6067 25.1266 17.7759 26.3641 16.2394 27.9225ZM8.39944 19.9985L12.3194 23.9577C14.368 21.8802 16.8089 20.2306 19.5005 19.1047C22.192 17.9788 25.0805 17.399 27.998 17.399C30.9156 17.399 33.8041 17.9788 36.4956 19.1047C39.1872 20.2306 41.6281 21.8802 43.6766 23.9577L47.5994 19.9985C45.0385 17.4015 41.9871 15.3393 38.6223 13.9318C35.2576 12.5243 31.6467 11.7995 27.9994 11.7995C24.3522 11.7995 20.7413 12.5243 17.3766 13.9318C14.0118 15.3393 10.9603 17.4015 8.39944 19.9985ZM0.556641 12.0801L4.47664 16.0393C7.54974 12.9224 11.2117 10.4474 15.2496 8.75809C19.2875 7.06878 23.621 6.19884 27.998 6.19884C32.3751 6.19884 36.7085 7.06878 40.7465 8.75809C44.7844 10.4474 48.4463 12.9224 51.5194 16.0393L55.4394 12.0801C51.8542 8.44375 47.582 5.55626 42.8711 3.58539C38.1602 1.61453 33.1046 0.599609 27.998 0.599609C22.8915 0.599609 17.8359 1.61453 13.125 3.58539C8.41409 5.55626 4.14188 8.44375 0.556641 12.0801Z" fill="black"/>
</svg>
