<svg width="14" height="16" viewBox="0 0 14 16" fill="none" xmlns="http://www.w3.org/2000/svg">
<path d="M2.52279 0.498291H3.4386L4.06718 2.85334L4.65003 0.499053H5.57499L4.51594 4.00001V6.3901H3.60546V4.00077L2.52279 0.498291ZM6.71784 2.00839C6.00622 2.00839 5.53384 2.47924 5.53384 3.17562V5.30591C5.53384 6.07239 5.93384 6.47162 6.71784 6.47162C7.36775 6.47162 7.87975 6.03658 7.87975 5.30591V3.17562C7.87975 2.49524 7.37232 2.00839 6.71784 2.00839ZM7.05537 5.26934C7.05537 5.50629 6.93499 5.68077 6.71708 5.68077C6.49384 5.68077 6.36508 5.49791 6.36508 5.26934V3.24801C6.36508 3.01029 6.47403 2.83429 6.70108 2.83429C6.94946 2.83429 7.05537 3.00496 7.05537 3.24801V5.27086V5.26934ZM10.0649 2.0442V5.34324C9.96584 5.46743 9.74641 5.66934 9.5887 5.66934C9.41651 5.66934 9.37384 5.55124 9.37384 5.37677V2.0442H8.56622V5.67696C8.56622 6.10667 8.69727 6.45334 9.13003 6.45334C9.3746 6.45334 9.71441 6.3261 10.0641 5.91086V6.39086H10.8717V2.04343H10.0641L10.0649 2.0442ZM11.466 10.861C11.1811 10.861 11.1217 11.0613 11.1217 11.3463V11.7653H11.802V11.3455C11.802 11.0659 11.7434 10.861 11.466 10.861ZM8.47403 10.8861C8.41381 10.9184 8.35967 10.9609 8.31403 11.0118V13.5916C8.36599 13.6507 8.42787 13.7002 8.49689 13.7379C8.6226 13.8011 8.80546 13.8057 8.89079 13.6952C8.93575 13.6366 8.95784 13.5413 8.95784 13.4095V11.2724C8.95784 11.1322 8.93041 11.0271 8.87556 10.9539C8.7826 10.832 8.60889 10.8183 8.47403 10.8861ZM11.5445 7.58096C9.88813 7.46896 4.50451 7.46896 2.85118 7.58096C1.0607 7.70286 0.84889 8.78477 0.835938 11.632C0.84889 14.4739 1.05841 15.5604 2.85041 15.6823C4.50451 15.7951 9.88813 15.7951 11.5445 15.6823C13.335 15.5604 13.546 14.4785 13.5597 11.632C13.546 8.7901 13.3365 7.70362 11.5445 7.58096ZM3.70451 14.3794H2.83746V9.58248H1.93994V8.76801H4.60051V9.58324H3.70375V14.3794H3.70451ZM6.78718 14.3794H6.01765V13.9223C5.87594 14.0914 5.72813 14.2194 5.57499 14.3078C5.15975 14.5455 4.5906 14.5402 4.5906 13.6998V10.2408H5.36013V13.4141C5.36013 13.5802 5.39975 13.6922 5.56432 13.6922C5.71441 13.6922 5.92318 13.4994 6.01689 13.3829V10.24H6.78641V14.3787L6.78718 14.3794ZM9.75022 13.5223C9.75022 14.0343 9.55822 14.432 9.04622 14.432C8.76432 14.432 8.52965 14.3291 8.31479 14.0617V14.3794H7.53841V8.76801H8.31556V10.5752C8.48927 10.3634 8.7247 10.1882 8.99975 10.1882C9.56356 10.1882 9.75099 10.6651 9.75099 11.2259V13.5223H9.75022ZM12.5944 12.4076H11.1224V13.1886C11.1224 13.4994 11.1491 13.7676 11.4577 13.7676C11.783 13.7676 11.802 13.549 11.802 13.1886V12.9013H12.5944V13.2122C12.5944 14.0091 12.2516 14.4922 11.4409 14.4922C10.7064 14.4922 10.33 13.9573 10.33 13.2122V11.3524C10.33 10.6347 10.8047 10.1356 11.4988 10.1356C12.2378 10.1356 12.5937 10.605 12.5937 11.3531V12.4069L12.5944 12.4076Z" fill="#BCBDBD"/>
</svg>
